{"title":"Byzantium 2012 WEBRip 480p x264 AAC - VYTO [P2PDL]","uid":8785082,"size":426881004,"categoryP":"video","categoryS":"movies","magnet":"?xt=urn:btih:0500153561f9bc041e7a5b7b1dd58ed2ce6581b1&amp;dn=Byzantium+2012+WEBRip+480p+x264+AAC+-+VYTO+%5BP2PDL%5D&amp;tr=udp%3A%2F%2Ftracker.openbittorrent.com%3A80&amp;tr=udp%3A%2F%2Fopen.demonii.com%3A1337&amp;tr=udp%3A%2F%2Ftracker.coppersurfer.tk%3A6969&amp;tr=udp%3A%2F%2Fexodus.desync.com%3A6969","seeders":1,"leechers":1,"uploader":"ValidusVyto","files":-1,"time":1375812551,"description":"_______ Visit us at our Semi Public Bittorrent Community ________\n  &lt;a href=&quot;\nhttp://p2pdl.com&quot; rel=&quot;nofollow&quot; target=&quot;_NEW&quot;&gt;\nhttp://p2pdl.com&lt;/a&gt;  _____________________________ &lt;a href=&quot; http://p2pdl.com&quot; rel=&quot;nofollow&quot; target=&quot;_NEW&quot;&gt; http://p2pdl.com&lt;/a&gt;\n\n\n\nByzantium 2012 WEBRip 480p x264 AAC - VYTO\n\n\nGenre: Drama | Fantasy | Thriller  \nPlot: Residents of a coastal town learn, with deathly consequences, the secret shared\nby the two mysterious women who have sought shelter at a local resort.\nDirector: Neil Jordan\nStars: Saoirse Ronan, Gemma Arterton, Caleb Landry Jones.\nRated: R for bloody violence, sexual content and language.\n\n\nIMDb: &lt;a href=&quot;\nhttp://www.imdb.com/title/tt1531901/&quot; rel=&quot;nofollow&quot; target=&quot;_NEW&quot;&gt;\nhttp://www.imdb.com/title/tt1531901/&lt;/a&gt;\n\nTrailer:\n\n\nFormat                         : MPEG-4\nFile size                      : 401 MiB\nDuration                       : 1h 58mn\nOverall bit rate               : 475 Kbps\nSource                         : 720p WEB-DL DD5.1 H 264-ELiTE\n\nVideo\nFormat                         : AVC\nBit rate                       : 430 Kbps\nWidth                          : 720 pixels\nHeight                         : 304 pixels\nDisplay aspect ratio           : 2.35:1\nFrame rate mode                : Constant\nFrame rate                     : 24.000 fps\nBit depth                      : 8 bits\nStream size                    : 363 MiB (91%)\nWriting library                : x264 core 133 r2334\n\nAudio\nFormat                         : AAC\nBit rate mode                  : Variable\nBit rate                       : 41.0 Kbps\nChannel(s)                     : 2 channels\nChannel positions              : Front: L R\nSampling rate                  : 48.0 KHz\nStream size                    : 34.6 MiB (9%)\nLanguage                       : English\n\nSubtitle                       : Yes(English)\n &lt;a href=&quot;\nhttp://www.ultraimg.com/images/MqJb4.png&quot; rel=&quot;nofollow&quot; target=&quot;_NEW&quot;&gt;\nhttp://www.ultraimg.com/images/MqJb4.png&lt;/a&gt; &lt;a href=&quot;\nhttp://www.ultraimg.com/images/7WXQv.png&quot; rel=&quot;nofollow&quot; target=&quot;_NEW&quot;&gt;\nhttp://www.ultraimg.com/images/7WXQv.png&lt;/a&gt; &lt;a href=&quot;\nhttp://www.ultraimg.com/images/f1PSK.png&quot; rel=&quot;nofollow&quot; target=&quot;_NEW&quot;&gt;\nhttp://www.ultraimg.com/images/f1PSK.png&lt;/a&gt; &lt;a href=&quot;\nhttp://www.ultraimg.com/images/zKUu0.png&quot; rel=&quot;nofollow&quot; target=&quot;_NEW&quot;&gt;\nhttp://www.ultraimg.com/images/zKUu0.png&lt;/a&gt; &lt;a href=&quot;\nhttp://www.ultraimg.com/images/P35R2.png&quot; rel=&quot;nofollow&quot; target=&quot;_NEW&quot;&gt;\nhttp://www.ultraimg.com/images/P35R2.png&lt;/a&gt; &lt;a href=&quot;\nhttp://www.ultraimg.com/images/NgyY7.png&quot; rel=&quot;nofollow&quot; target=&quot;_NEW&quot;&gt;\nhttp://www.ultraimg.com/images/NgyY7.png&lt;/a&gt; &lt;a href=&quot;\nhttp://www.ultraimg.com/images/XlIgs.png&quot; rel=&quot;nofollow&quot; target=&quot;_NEW&quot;&gt;\nhttp://www.ultraimg.com/images/XlIgs.png&lt;/a&gt; &lt;a href=&quot;\nhttp://www.ultraimg.com/images/13cxV.png&quot; rel=&quot;nofollow&quot; target=&quot;_NEW&quot;&gt;\nhttp://www.ultraimg.com/images/13cxV.png&lt;/a&gt;\n\n----------------------------------------------------------------------------------------------------\n\n\nEncoder Notes: Looking For Early Access To Anything You Can Provide DVDScr, R5, DVDR, BluRay, Direct\nAudio, Music Releases and Seedboxes. We require dedicated servers, so as to do more \nand fast releases of movies.\nIf You Got anything to offer please contact us at &quot;&lt;a class=&quot;__cf_email__&quot; href=&quot;/cdn-cgi/l/email-protection&quot; data-cfemail=&quot;b6c6c4d1f6dec3c5de98d5d9db&quot;&gt;[email&amp;#160;protected]&lt;/a&gt;&lt;script cf-hash='f9e31' type=&quot;text/javascript&quot;&gt;\n/* &lt;![CDATA[ */!function(){try{var t=&quot;currentScript&quot;in document?document.currentScript:function(){for(var t=document.getElementsByTagName(&quot;script&quot;),e=t.length;e--;)if(t[e].getAttribute(&quot;cf-hash&quot;))return t[e]}();if(t&amp;&amp;t.previousSibling){var e,r,n,i,c=t.previousSibling,a=c.getAttribute(&quot;data-cfemail&quot;);if(a){for(e=&quot;&quot;,r=parseInt(a.substr(0,2),16),n=2;a.length-n;n+=2)i=parseInt(a.substr(n,2),16)^r,e+=String.fromCharCode(i);e=document.createTextNode(e),c.parentNode.replaceChild(e,c)}}}catch(u){}}();/* ]]&gt; */&lt;/script&gt;&quot;.\n\nFace book Fan Page:  \nSearch P2PLDL on FB and do hit like!!! :)","torrent":{"xt":"urn:btih:0500153561f9bc041e7a5b7b1dd58ed2ce6581b1","amp;dn":"Byzantium+2012+WEBRip+480p+x264+AAC+-+VYTO+%5BP2PDL%5D","amp;tr":["udp%3A%2F%2Ftracker.openbittorrent.com%3A80","udp%3A%2F%2Fopen.demonii.com%3A1337","udp%3A%2F%2Ftracker.coppersurfer.tk%3A6969","udp%3A%2F%2Fexodus.desync.com%3A6969"],"infoHash":"0500153561f9bc041e7a5b7b1dd58ed2ce6581b1","infoHashBuffer":{"type":"Buffer","data":[5,0,21,53,97,249,188,4,30,122,91,123,29,213,142,210,206,101,129,177]},"announce":[],"urlList":[]}}